<mxfile host="app.diagrams.net" modified="2021-04-26T01:11:35.876Z" agent="5.0 (Windows NT 10.0; Win64; x64) AppleWebKit/537.36 (KHTML, like Gecko) Chrome/90.0.4430.85 Safari/537.36" etag="R_wyBLuV-7nj2oo2ThIj" version="14.6.6" type="github">
  <diagram id="R2lEEEUBdFMjLlhIrx00" name="Page-1">
    <mxGraphModel dx="1822" dy="776" grid="0" gridSize="10" guides="1" tooltips="1" connect="1" arrows="1" fold="1" page="0" pageScale="1" pageWidth="850" pageHeight="1100" math="0" shadow="0" extFonts="Permanent Marker^https://fonts.googleapis.com/css?family=Permanent+Marker">
      <root>
        <mxCell id="0" />
        <mxCell id="1" parent="0" />
        <mxCell id="FYzGkgCcQQeUdny1Y622-147" style="edgeStyle=orthogonalEdgeStyle;rounded=0;orthogonalLoop=1;jettySize=auto;html=1;" parent="1" source="FYzGkgCcQQeUdny1Y622-11" target="FYzGkgCcQQeUdny1Y622-39" edge="1">
          <mxGeometry relative="1" as="geometry" />
        </mxCell>
        <mxCell id="FYzGkgCcQQeUdny1Y622-148" style="edgeStyle=orthogonalEdgeStyle;rounded=0;orthogonalLoop=1;jettySize=auto;html=1;" parent="1" source="FYzGkgCcQQeUdny1Y622-11" target="FYzGkgCcQQeUdny1Y622-64" edge="1">
          <mxGeometry relative="1" as="geometry" />
        </mxCell>
        <mxCell id="FYzGkgCcQQeUdny1Y622-11" value="Peliculas" style="shape=table;startSize=30;container=1;collapsible=1;childLayout=tableLayout;fixedRows=1;rowLines=0;fontStyle=1;align=center;resizeLast=1;" parent="1" vertex="1">
          <mxGeometry x="435" y="108" width="269.75" height="430" as="geometry" />
        </mxCell>
        <mxCell id="FYzGkgCcQQeUdny1Y622-12" value="" style="shape=partialRectangle;collapsible=0;dropTarget=0;pointerEvents=0;fillColor=none;top=0;left=0;bottom=0;right=0;points=[[0,0.5],[1,0.5]];portConstraint=eastwest;" parent="FYzGkgCcQQeUdny1Y622-11" vertex="1">
          <mxGeometry y="30" width="269.75" height="30" as="geometry" />
        </mxCell>
        <mxCell id="FYzGkgCcQQeUdny1Y622-13" value="" style="shape=partialRectangle;connectable=0;fillColor=none;top=0;left=0;bottom=0;right=0;fontStyle=1;overflow=hidden;" parent="FYzGkgCcQQeUdny1Y622-12" vertex="1">
          <mxGeometry width="60" height="30" as="geometry" />
        </mxCell>
        <mxCell id="FYzGkgCcQQeUdny1Y622-14" value="Cod. País de filmación" style="shape=partialRectangle;connectable=0;fillColor=none;top=0;left=0;bottom=0;right=0;align=left;spacingLeft=6;fontStyle=5;overflow=hidden;" parent="FYzGkgCcQQeUdny1Y622-12" vertex="1">
          <mxGeometry x="60" width="209.75" height="30" as="geometry" />
        </mxCell>
        <mxCell id="FYzGkgCcQQeUdny1Y622-15" value="" style="shape=partialRectangle;collapsible=0;dropTarget=0;pointerEvents=0;fillColor=none;top=0;left=0;bottom=1;right=0;points=[[0,0.5],[1,0.5]];portConstraint=eastwest;" parent="FYzGkgCcQQeUdny1Y622-11" vertex="1">
          <mxGeometry y="60" width="269.75" height="30" as="geometry" />
        </mxCell>
        <mxCell id="FYzGkgCcQQeUdny1Y622-16" value="" style="shape=partialRectangle;connectable=0;fillColor=none;top=0;left=0;bottom=0;right=0;fontStyle=1;overflow=hidden;" parent="FYzGkgCcQQeUdny1Y622-15" vertex="1">
          <mxGeometry width="60" height="30" as="geometry" />
        </mxCell>
        <mxCell id="FYzGkgCcQQeUdny1Y622-17" value="Cod. Película" style="shape=partialRectangle;connectable=0;fillColor=none;top=0;left=0;bottom=0;right=0;align=left;spacingLeft=6;fontStyle=5;overflow=hidden;" parent="FYzGkgCcQQeUdny1Y622-15" vertex="1">
          <mxGeometry x="60" width="209.75" height="30" as="geometry" />
        </mxCell>
        <mxCell id="FYzGkgCcQQeUdny1Y622-18" value="" style="shape=partialRectangle;collapsible=0;dropTarget=0;pointerEvents=0;fillColor=none;top=0;left=0;bottom=0;right=0;points=[[0,0.5],[1,0.5]];portConstraint=eastwest;" parent="FYzGkgCcQQeUdny1Y622-11" vertex="1">
          <mxGeometry y="90" width="269.75" height="30" as="geometry" />
        </mxCell>
        <mxCell id="FYzGkgCcQQeUdny1Y622-19" value="" style="shape=partialRectangle;connectable=0;fillColor=none;top=0;left=0;bottom=0;right=0;editable=1;overflow=hidden;" parent="FYzGkgCcQQeUdny1Y622-18" vertex="1">
          <mxGeometry width="60" height="30" as="geometry" />
        </mxCell>
        <mxCell id="FYzGkgCcQQeUdny1Y622-20" value="Nombre del país" style="shape=partialRectangle;connectable=0;fillColor=none;top=0;left=0;bottom=0;right=0;align=left;spacingLeft=6;overflow=hidden;" parent="FYzGkgCcQQeUdny1Y622-18" vertex="1">
          <mxGeometry x="60" width="209.75" height="30" as="geometry" />
        </mxCell>
        <mxCell id="FYzGkgCcQQeUdny1Y622-36" style="shape=partialRectangle;collapsible=0;dropTarget=0;pointerEvents=0;fillColor=none;top=0;left=0;bottom=0;right=0;points=[[0,0.5],[1,0.5]];portConstraint=eastwest;" parent="FYzGkgCcQQeUdny1Y622-11" vertex="1">
          <mxGeometry y="120" width="269.75" height="30" as="geometry" />
        </mxCell>
        <mxCell id="FYzGkgCcQQeUdny1Y622-37" style="shape=partialRectangle;connectable=0;fillColor=none;top=0;left=0;bottom=0;right=0;editable=1;overflow=hidden;" parent="FYzGkgCcQQeUdny1Y622-36" vertex="1">
          <mxGeometry width="60" height="30" as="geometry" />
        </mxCell>
        <mxCell id="FYzGkgCcQQeUdny1Y622-38" value="Nombre de la película" style="shape=partialRectangle;connectable=0;fillColor=none;top=0;left=0;bottom=0;right=0;align=left;spacingLeft=6;overflow=hidden;" parent="FYzGkgCcQQeUdny1Y622-36" vertex="1">
          <mxGeometry x="60" width="209.75" height="30" as="geometry" />
        </mxCell>
        <mxCell id="FYzGkgCcQQeUdny1Y622-33" style="shape=partialRectangle;collapsible=0;dropTarget=0;pointerEvents=0;fillColor=none;top=0;left=0;bottom=0;right=0;points=[[0,0.5],[1,0.5]];portConstraint=eastwest;" parent="FYzGkgCcQQeUdny1Y622-11" vertex="1">
          <mxGeometry y="150" width="269.75" height="30" as="geometry" />
        </mxCell>
        <mxCell id="FYzGkgCcQQeUdny1Y622-34" style="shape=partialRectangle;connectable=0;fillColor=none;top=0;left=0;bottom=0;right=0;editable=1;overflow=hidden;" parent="FYzGkgCcQQeUdny1Y622-33" vertex="1">
          <mxGeometry width="60" height="30" as="geometry" />
        </mxCell>
        <mxCell id="FYzGkgCcQQeUdny1Y622-35" value="Cod. Género" style="shape=partialRectangle;connectable=0;fillColor=none;top=0;left=0;bottom=0;right=0;align=left;spacingLeft=6;overflow=hidden;" parent="FYzGkgCcQQeUdny1Y622-33" vertex="1">
          <mxGeometry x="60" width="209.75" height="30" as="geometry" />
        </mxCell>
        <mxCell id="FYzGkgCcQQeUdny1Y622-30" style="shape=partialRectangle;collapsible=0;dropTarget=0;pointerEvents=0;fillColor=none;top=0;left=0;bottom=0;right=0;points=[[0,0.5],[1,0.5]];portConstraint=eastwest;" parent="FYzGkgCcQQeUdny1Y622-11" vertex="1">
          <mxGeometry y="180" width="269.75" height="30" as="geometry" />
        </mxCell>
        <mxCell id="FYzGkgCcQQeUdny1Y622-31" style="shape=partialRectangle;connectable=0;fillColor=none;top=0;left=0;bottom=0;right=0;editable=1;overflow=hidden;" parent="FYzGkgCcQQeUdny1Y622-30" vertex="1">
          <mxGeometry width="60" height="30" as="geometry" />
        </mxCell>
        <mxCell id="FYzGkgCcQQeUdny1Y622-32" value="Descripción Género" style="shape=partialRectangle;connectable=0;fillColor=none;top=0;left=0;bottom=0;right=0;align=left;spacingLeft=6;overflow=hidden;" parent="FYzGkgCcQQeUdny1Y622-30" vertex="1">
          <mxGeometry x="60" width="209.75" height="30" as="geometry" />
        </mxCell>
        <mxCell id="FYzGkgCcQQeUdny1Y622-27" style="shape=partialRectangle;collapsible=0;dropTarget=0;pointerEvents=0;fillColor=none;top=0;left=0;bottom=0;right=0;points=[[0,0.5],[1,0.5]];portConstraint=eastwest;" parent="FYzGkgCcQQeUdny1Y622-11" vertex="1">
          <mxGeometry y="210" width="269.75" height="30" as="geometry" />
        </mxCell>
        <mxCell id="FYzGkgCcQQeUdny1Y622-28" style="shape=partialRectangle;connectable=0;fillColor=none;top=0;left=0;bottom=0;right=0;editable=1;overflow=hidden;" parent="FYzGkgCcQQeUdny1Y622-27" vertex="1">
          <mxGeometry width="60" height="30" as="geometry" />
        </mxCell>
        <mxCell id="FYzGkgCcQQeUdny1Y622-29" value="Argumento de la película" style="shape=partialRectangle;connectable=0;fillColor=none;top=0;left=0;bottom=0;right=0;align=left;spacingLeft=6;overflow=hidden;" parent="FYzGkgCcQQeUdny1Y622-27" vertex="1">
          <mxGeometry x="60" width="209.75" height="30" as="geometry" />
        </mxCell>
        <mxCell id="FYzGkgCcQQeUdny1Y622-21" value="" style="shape=partialRectangle;collapsible=0;dropTarget=0;pointerEvents=0;fillColor=none;top=0;left=0;bottom=0;right=0;points=[[0,0.5],[1,0.5]];portConstraint=eastwest;" parent="FYzGkgCcQQeUdny1Y622-11" vertex="1">
          <mxGeometry y="240" width="269.75" height="30" as="geometry" />
        </mxCell>
        <mxCell id="FYzGkgCcQQeUdny1Y622-22" value="" style="shape=partialRectangle;connectable=0;fillColor=none;top=0;left=0;bottom=0;right=0;editable=1;overflow=hidden;" parent="FYzGkgCcQQeUdny1Y622-21" vertex="1">
          <mxGeometry width="60" height="30" as="geometry" />
        </mxCell>
        <mxCell id="FYzGkgCcQQeUdny1Y622-23" value="Matrícula del Director" style="shape=partialRectangle;connectable=0;fillColor=none;top=0;left=0;bottom=0;right=0;align=left;spacingLeft=6;overflow=hidden;" parent="FYzGkgCcQQeUdny1Y622-21" vertex="1">
          <mxGeometry x="60" width="209.75" height="30" as="geometry" />
        </mxCell>
        <mxCell id="FYzGkgCcQQeUdny1Y622-61" style="shape=partialRectangle;collapsible=0;dropTarget=0;pointerEvents=0;fillColor=none;top=0;left=0;bottom=0;right=0;points=[[0,0.5],[1,0.5]];portConstraint=eastwest;" parent="FYzGkgCcQQeUdny1Y622-11" vertex="1">
          <mxGeometry y="270" width="269.75" height="30" as="geometry" />
        </mxCell>
        <mxCell id="FYzGkgCcQQeUdny1Y622-62" style="shape=partialRectangle;connectable=0;fillColor=none;top=0;left=0;bottom=0;right=0;editable=1;overflow=hidden;" parent="FYzGkgCcQQeUdny1Y622-61" vertex="1">
          <mxGeometry width="60" height="30" as="geometry" />
        </mxCell>
        <mxCell id="FYzGkgCcQQeUdny1Y622-63" value="Nombre del Director" style="shape=partialRectangle;connectable=0;fillColor=none;top=0;left=0;bottom=0;right=0;align=left;spacingLeft=6;overflow=hidden;" parent="FYzGkgCcQQeUdny1Y622-61" vertex="1">
          <mxGeometry x="60" width="209.75" height="30" as="geometry" />
        </mxCell>
        <mxCell id="FYzGkgCcQQeUdny1Y622-58" style="shape=partialRectangle;collapsible=0;dropTarget=0;pointerEvents=0;fillColor=none;top=0;left=0;bottom=0;right=0;points=[[0,0.5],[1,0.5]];portConstraint=eastwest;" parent="FYzGkgCcQQeUdny1Y622-11" vertex="1">
          <mxGeometry y="300" width="269.75" height="30" as="geometry" />
        </mxCell>
        <mxCell id="FYzGkgCcQQeUdny1Y622-59" style="shape=partialRectangle;connectable=0;fillColor=none;top=0;left=0;bottom=0;right=0;editable=1;overflow=hidden;" parent="FYzGkgCcQQeUdny1Y622-58" vertex="1">
          <mxGeometry width="60" height="30" as="geometry" />
        </mxCell>
        <mxCell id="FYzGkgCcQQeUdny1Y622-60" value="Costo de rodaje" style="shape=partialRectangle;connectable=0;fillColor=none;top=0;left=0;bottom=0;right=0;align=left;spacingLeft=6;overflow=hidden;" parent="FYzGkgCcQQeUdny1Y622-58" vertex="1">
          <mxGeometry x="60" width="209.75" height="30" as="geometry" />
        </mxCell>
        <mxCell id="FYzGkgCcQQeUdny1Y622-55" style="shape=partialRectangle;collapsible=0;dropTarget=0;pointerEvents=0;fillColor=none;top=0;left=0;bottom=0;right=0;points=[[0,0.5],[1,0.5]];portConstraint=eastwest;" parent="FYzGkgCcQQeUdny1Y622-11" vertex="1">
          <mxGeometry y="330" width="269.75" height="30" as="geometry" />
        </mxCell>
        <mxCell id="FYzGkgCcQQeUdny1Y622-56" style="shape=partialRectangle;connectable=0;fillColor=none;top=0;left=0;bottom=0;right=0;editable=1;overflow=hidden;" parent="FYzGkgCcQQeUdny1Y622-55" vertex="1">
          <mxGeometry width="60" height="30" as="geometry" />
        </mxCell>
        <mxCell id="FYzGkgCcQQeUdny1Y622-57" value="Fecha de rodaje" style="shape=partialRectangle;connectable=0;fillColor=none;top=0;left=0;bottom=0;right=0;align=left;spacingLeft=6;overflow=hidden;" parent="FYzGkgCcQQeUdny1Y622-55" vertex="1">
          <mxGeometry x="60" width="209.75" height="30" as="geometry" />
        </mxCell>
        <mxCell id="FYzGkgCcQQeUdny1Y622-52" style="shape=partialRectangle;collapsible=0;dropTarget=0;pointerEvents=0;fillColor=none;top=0;left=0;bottom=0;right=0;points=[[0,0.5],[1,0.5]];portConstraint=eastwest;" parent="FYzGkgCcQQeUdny1Y622-11" vertex="1">
          <mxGeometry y="360" width="269.75" height="30" as="geometry" />
        </mxCell>
        <mxCell id="FYzGkgCcQQeUdny1Y622-53" style="shape=partialRectangle;connectable=0;fillColor=none;top=0;left=0;bottom=0;right=0;editable=1;overflow=hidden;" parent="FYzGkgCcQQeUdny1Y622-52" vertex="1">
          <mxGeometry width="60" height="30" as="geometry" />
        </mxCell>
        <mxCell id="FYzGkgCcQQeUdny1Y622-54" value="Cod. de calificación de público" style="shape=partialRectangle;connectable=0;fillColor=none;top=0;left=0;bottom=0;right=0;align=left;spacingLeft=6;overflow=hidden;" parent="FYzGkgCcQQeUdny1Y622-52" vertex="1">
          <mxGeometry x="60" width="209.75" height="30" as="geometry" />
        </mxCell>
        <mxCell id="FYzGkgCcQQeUdny1Y622-86" style="shape=partialRectangle;collapsible=0;dropTarget=0;pointerEvents=0;fillColor=none;top=0;left=0;bottom=0;right=0;points=[[0,0.5],[1,0.5]];portConstraint=eastwest;" parent="FYzGkgCcQQeUdny1Y622-11" vertex="1">
          <mxGeometry y="390" width="269.75" height="30" as="geometry" />
        </mxCell>
        <mxCell id="FYzGkgCcQQeUdny1Y622-87" style="shape=partialRectangle;connectable=0;fillColor=none;top=0;left=0;bottom=0;right=0;editable=1;overflow=hidden;" parent="FYzGkgCcQQeUdny1Y622-86" vertex="1">
          <mxGeometry width="60" height="30" as="geometry" />
        </mxCell>
        <mxCell id="FYzGkgCcQQeUdny1Y622-88" value="Descripción calificación de público" style="shape=partialRectangle;connectable=0;fillColor=none;top=0;left=0;bottom=0;right=0;align=left;spacingLeft=6;overflow=hidden;" parent="FYzGkgCcQQeUdny1Y622-86" vertex="1">
          <mxGeometry x="60" width="209.75" height="30" as="geometry" />
        </mxCell>
        <mxCell id="FYzGkgCcQQeUdny1Y622-39" value="CursosDireccion" style="shape=table;startSize=30;container=1;collapsible=1;childLayout=tableLayout;fixedRows=1;rowLines=0;fontStyle=1;align=center;resizeLast=1;" parent="1" vertex="1">
          <mxGeometry x="801" y="108" width="257.75" height="160" as="geometry" />
        </mxCell>
        <mxCell id="FYzGkgCcQQeUdny1Y622-40" value="" style="shape=partialRectangle;collapsible=0;dropTarget=0;pointerEvents=0;fillColor=none;top=0;left=0;bottom=0;right=0;points=[[0,0.5],[1,0.5]];portConstraint=eastwest;" parent="FYzGkgCcQQeUdny1Y622-39" vertex="1">
          <mxGeometry y="30" width="257.75" height="30" as="geometry" />
        </mxCell>
        <mxCell id="FYzGkgCcQQeUdny1Y622-41" value="" style="shape=partialRectangle;connectable=0;fillColor=none;top=0;left=0;bottom=0;right=0;fontStyle=1;overflow=hidden;" parent="FYzGkgCcQQeUdny1Y622-40" vertex="1">
          <mxGeometry width="60" height="30" as="geometry" />
        </mxCell>
        <mxCell id="FYzGkgCcQQeUdny1Y622-42" value="Cursos de Dirección realizados" style="shape=partialRectangle;connectable=0;fillColor=none;top=0;left=0;bottom=0;right=0;align=left;spacingLeft=6;fontStyle=5;overflow=hidden;" parent="FYzGkgCcQQeUdny1Y622-40" vertex="1">
          <mxGeometry x="60" width="197.75" height="30" as="geometry" />
        </mxCell>
        <mxCell id="FYzGkgCcQQeUdny1Y622-122" style="shape=partialRectangle;collapsible=0;dropTarget=0;pointerEvents=0;fillColor=none;top=0;left=0;bottom=0;right=0;points=[[0,0.5],[1,0.5]];portConstraint=eastwest;" parent="FYzGkgCcQQeUdny1Y622-39" vertex="1">
          <mxGeometry y="60" width="257.75" height="30" as="geometry" />
        </mxCell>
        <mxCell id="FYzGkgCcQQeUdny1Y622-123" style="shape=partialRectangle;connectable=0;fillColor=none;top=0;left=0;bottom=0;right=0;fontStyle=1;overflow=hidden;" parent="FYzGkgCcQQeUdny1Y622-122" vertex="1">
          <mxGeometry width="60" height="30" as="geometry" />
        </mxCell>
        <mxCell id="FYzGkgCcQQeUdny1Y622-124" value="Matrícula del Director" style="shape=partialRectangle;connectable=0;fillColor=none;top=0;left=0;bottom=0;right=0;align=left;spacingLeft=6;fontStyle=5;overflow=hidden;" parent="FYzGkgCcQQeUdny1Y622-122" vertex="1">
          <mxGeometry x="60" width="197.75" height="30" as="geometry" />
        </mxCell>
        <mxCell id="FYzGkgCcQQeUdny1Y622-119" style="shape=partialRectangle;collapsible=0;dropTarget=0;pointerEvents=0;fillColor=none;top=0;left=0;bottom=0;right=0;points=[[0,0.5],[1,0.5]];portConstraint=eastwest;" parent="FYzGkgCcQQeUdny1Y622-39" vertex="1">
          <mxGeometry y="90" width="257.75" height="30" as="geometry" />
        </mxCell>
        <mxCell id="FYzGkgCcQQeUdny1Y622-120" style="shape=partialRectangle;connectable=0;fillColor=none;top=0;left=0;bottom=0;right=0;fontStyle=1;overflow=hidden;" parent="FYzGkgCcQQeUdny1Y622-119" vertex="1">
          <mxGeometry width="60" height="30" as="geometry" />
        </mxCell>
        <mxCell id="FYzGkgCcQQeUdny1Y622-121" value="Cod. País de filmación" style="shape=partialRectangle;connectable=0;fillColor=none;top=0;left=0;bottom=0;right=0;align=left;spacingLeft=6;fontStyle=5;overflow=hidden;" parent="FYzGkgCcQQeUdny1Y622-119" vertex="1">
          <mxGeometry x="60" width="197.75" height="30" as="geometry" />
        </mxCell>
        <mxCell id="FYzGkgCcQQeUdny1Y622-43" value="" style="shape=partialRectangle;collapsible=0;dropTarget=0;pointerEvents=0;fillColor=none;top=0;left=0;bottom=1;right=0;points=[[0,0.5],[1,0.5]];portConstraint=eastwest;" parent="FYzGkgCcQQeUdny1Y622-39" vertex="1">
          <mxGeometry y="120" width="257.75" height="30" as="geometry" />
        </mxCell>
        <mxCell id="FYzGkgCcQQeUdny1Y622-44" value="" style="shape=partialRectangle;connectable=0;fillColor=none;top=0;left=0;bottom=0;right=0;fontStyle=1;overflow=hidden;" parent="FYzGkgCcQQeUdny1Y622-43" vertex="1">
          <mxGeometry width="60" height="30" as="geometry" />
        </mxCell>
        <mxCell id="FYzGkgCcQQeUdny1Y622-45" value="Cod. Película" style="shape=partialRectangle;connectable=0;fillColor=none;top=0;left=0;bottom=0;right=0;align=left;spacingLeft=6;fontStyle=5;overflow=hidden;" parent="FYzGkgCcQQeUdny1Y622-43" vertex="1">
          <mxGeometry x="60" width="197.75" height="30" as="geometry" />
        </mxCell>
        <mxCell id="FYzGkgCcQQeUdny1Y622-149" style="edgeStyle=orthogonalEdgeStyle;rounded=0;orthogonalLoop=1;jettySize=auto;html=1;" parent="1" source="FYzGkgCcQQeUdny1Y622-64" target="FYzGkgCcQQeUdny1Y622-125" edge="1">
          <mxGeometry relative="1" as="geometry" />
        </mxCell>
        <mxCell id="FYzGkgCcQQeUdny1Y622-64" value="Actores" style="shape=table;startSize=30;container=1;collapsible=1;childLayout=tableLayout;fixedRows=1;rowLines=0;fontStyle=1;align=center;resizeLast=1;" parent="1" vertex="1">
          <mxGeometry x="105" y="108" width="251.75" height="220" as="geometry" />
        </mxCell>
        <mxCell id="FYzGkgCcQQeUdny1Y622-65" value="" style="shape=partialRectangle;collapsible=0;dropTarget=0;pointerEvents=0;fillColor=none;top=0;left=0;bottom=0;right=0;points=[[0,0.5],[1,0.5]];portConstraint=eastwest;" parent="FYzGkgCcQQeUdny1Y622-64" vertex="1">
          <mxGeometry y="30" width="251.75" height="30" as="geometry" />
        </mxCell>
        <mxCell id="FYzGkgCcQQeUdny1Y622-66" value="" style="shape=partialRectangle;connectable=0;fillColor=none;top=0;left=0;bottom=0;right=0;fontStyle=1;overflow=hidden;" parent="FYzGkgCcQQeUdny1Y622-65" vertex="1">
          <mxGeometry width="60" height="30" as="geometry" />
        </mxCell>
        <mxCell id="FYzGkgCcQQeUdny1Y622-67" value="Legajo internacional del actor" style="shape=partialRectangle;connectable=0;fillColor=none;top=0;left=0;bottom=0;right=0;align=left;spacingLeft=6;fontStyle=5;overflow=hidden;" parent="FYzGkgCcQQeUdny1Y622-65" vertex="1">
          <mxGeometry x="60" width="191.75" height="30" as="geometry" />
        </mxCell>
        <mxCell id="FYzGkgCcQQeUdny1Y622-77" style="shape=partialRectangle;collapsible=0;dropTarget=0;pointerEvents=0;fillColor=none;top=0;left=0;bottom=0;right=0;points=[[0,0.5],[1,0.5]];portConstraint=eastwest;" parent="FYzGkgCcQQeUdny1Y622-64" vertex="1">
          <mxGeometry y="60" width="251.75" height="30" as="geometry" />
        </mxCell>
        <mxCell id="FYzGkgCcQQeUdny1Y622-78" style="shape=partialRectangle;connectable=0;fillColor=none;top=0;left=0;bottom=0;right=0;fontStyle=1;overflow=hidden;" parent="FYzGkgCcQQeUdny1Y622-77" vertex="1">
          <mxGeometry width="60" height="30" as="geometry" />
        </mxCell>
        <mxCell id="FYzGkgCcQQeUdny1Y622-79" value="Cod. País de filmación" style="shape=partialRectangle;connectable=0;fillColor=none;top=0;left=0;bottom=0;right=0;align=left;spacingLeft=6;fontStyle=5;overflow=hidden;" parent="FYzGkgCcQQeUdny1Y622-77" vertex="1">
          <mxGeometry x="60" width="191.75" height="30" as="geometry" />
        </mxCell>
        <mxCell id="FYzGkgCcQQeUdny1Y622-68" value="" style="shape=partialRectangle;collapsible=0;dropTarget=0;pointerEvents=0;fillColor=none;top=0;left=0;bottom=1;right=0;points=[[0,0.5],[1,0.5]];portConstraint=eastwest;" parent="FYzGkgCcQQeUdny1Y622-64" vertex="1">
          <mxGeometry y="90" width="251.75" height="30" as="geometry" />
        </mxCell>
        <mxCell id="FYzGkgCcQQeUdny1Y622-69" value="" style="shape=partialRectangle;connectable=0;fillColor=none;top=0;left=0;bottom=0;right=0;fontStyle=1;overflow=hidden;" parent="FYzGkgCcQQeUdny1Y622-68" vertex="1">
          <mxGeometry width="60" height="30" as="geometry" />
        </mxCell>
        <mxCell id="FYzGkgCcQQeUdny1Y622-70" value="Cod. Película" style="shape=partialRectangle;connectable=0;fillColor=none;top=0;left=0;bottom=0;right=0;align=left;spacingLeft=6;fontStyle=5;overflow=hidden;" parent="FYzGkgCcQQeUdny1Y622-68" vertex="1">
          <mxGeometry x="60" width="191.75" height="30" as="geometry" />
        </mxCell>
        <mxCell id="FYzGkgCcQQeUdny1Y622-71" value="" style="shape=partialRectangle;collapsible=0;dropTarget=0;pointerEvents=0;fillColor=none;top=0;left=0;bottom=0;right=0;points=[[0,0.5],[1,0.5]];portConstraint=eastwest;" parent="FYzGkgCcQQeUdny1Y622-64" vertex="1">
          <mxGeometry y="120" width="251.75" height="30" as="geometry" />
        </mxCell>
        <mxCell id="FYzGkgCcQQeUdny1Y622-72" value="" style="shape=partialRectangle;connectable=0;fillColor=none;top=0;left=0;bottom=0;right=0;editable=1;overflow=hidden;" parent="FYzGkgCcQQeUdny1Y622-71" vertex="1">
          <mxGeometry width="60" height="30" as="geometry" />
        </mxCell>
        <mxCell id="FYzGkgCcQQeUdny1Y622-73" value="Nombre del actor" style="shape=partialRectangle;connectable=0;fillColor=none;top=0;left=0;bottom=0;right=0;align=left;spacingLeft=6;overflow=hidden;" parent="FYzGkgCcQQeUdny1Y622-71" vertex="1">
          <mxGeometry x="60" width="191.75" height="30" as="geometry" />
        </mxCell>
        <mxCell id="FYzGkgCcQQeUdny1Y622-74" value="" style="shape=partialRectangle;collapsible=0;dropTarget=0;pointerEvents=0;fillColor=none;top=0;left=0;bottom=0;right=0;points=[[0,0.5],[1,0.5]];portConstraint=eastwest;" parent="FYzGkgCcQQeUdny1Y622-64" vertex="1">
          <mxGeometry y="150" width="251.75" height="30" as="geometry" />
        </mxCell>
        <mxCell id="FYzGkgCcQQeUdny1Y622-75" value="" style="shape=partialRectangle;connectable=0;fillColor=none;top=0;left=0;bottom=0;right=0;editable=1;overflow=hidden;" parent="FYzGkgCcQQeUdny1Y622-74" vertex="1">
          <mxGeometry width="60" height="30" as="geometry" />
        </mxCell>
        <mxCell id="FYzGkgCcQQeUdny1Y622-76" value="Fecha de nacimiento" style="shape=partialRectangle;connectable=0;fillColor=none;top=0;left=0;bottom=0;right=0;align=left;spacingLeft=6;overflow=hidden;" parent="FYzGkgCcQQeUdny1Y622-74" vertex="1">
          <mxGeometry x="60" width="191.75" height="30" as="geometry" />
        </mxCell>
        <mxCell id="FYzGkgCcQQeUdny1Y622-83" style="shape=partialRectangle;collapsible=0;dropTarget=0;pointerEvents=0;fillColor=none;top=0;left=0;bottom=0;right=0;points=[[0,0.5],[1,0.5]];portConstraint=eastwest;" parent="FYzGkgCcQQeUdny1Y622-64" vertex="1">
          <mxGeometry y="180" width="251.75" height="30" as="geometry" />
        </mxCell>
        <mxCell id="FYzGkgCcQQeUdny1Y622-84" style="shape=partialRectangle;connectable=0;fillColor=none;top=0;left=0;bottom=0;right=0;editable=1;overflow=hidden;" parent="FYzGkgCcQQeUdny1Y622-83" vertex="1">
          <mxGeometry width="60" height="30" as="geometry" />
        </mxCell>
        <mxCell id="FYzGkgCcQQeUdny1Y622-85" value="Perfil artístico" style="shape=partialRectangle;connectable=0;fillColor=none;top=0;left=0;bottom=0;right=0;align=left;spacingLeft=6;overflow=hidden;" parent="FYzGkgCcQQeUdny1Y622-83" vertex="1">
          <mxGeometry x="60" width="191.75" height="30" as="geometry" />
        </mxCell>
        <mxCell id="FYzGkgCcQQeUdny1Y622-125" value="Antecedentes" style="shape=table;startSize=30;container=1;collapsible=1;childLayout=tableLayout;fixedRows=1;rowLines=0;fontStyle=1;align=center;resizeLast=1;" parent="1" vertex="1">
          <mxGeometry x="-250" y="108" width="263.75" height="190" as="geometry" />
        </mxCell>
        <mxCell id="FYzGkgCcQQeUdny1Y622-126" value="" style="shape=partialRectangle;collapsible=0;dropTarget=0;pointerEvents=0;fillColor=none;top=0;left=0;bottom=0;right=0;points=[[0,0.5],[1,0.5]];portConstraint=eastwest;" parent="FYzGkgCcQQeUdny1Y622-125" vertex="1">
          <mxGeometry y="30" width="263.75" height="30" as="geometry" />
        </mxCell>
        <mxCell id="FYzGkgCcQQeUdny1Y622-127" value="" style="shape=partialRectangle;connectable=0;fillColor=none;top=0;left=0;bottom=0;right=0;fontStyle=1;overflow=hidden;" parent="FYzGkgCcQQeUdny1Y622-126" vertex="1">
          <mxGeometry width="60" height="30" as="geometry" />
        </mxCell>
        <mxCell id="FYzGkgCcQQeUdny1Y622-128" value="Cod. Película en la que intervino" style="shape=partialRectangle;connectable=0;fillColor=none;top=0;left=0;bottom=0;right=0;align=left;spacingLeft=6;fontStyle=5;overflow=hidden;" parent="FYzGkgCcQQeUdny1Y622-126" vertex="1">
          <mxGeometry x="60" width="203.75" height="30" as="geometry" />
        </mxCell>
        <mxCell id="FYzGkgCcQQeUdny1Y622-141" style="shape=partialRectangle;collapsible=0;dropTarget=0;pointerEvents=0;fillColor=none;top=0;left=0;bottom=0;right=0;points=[[0,0.5],[1,0.5]];portConstraint=eastwest;" parent="FYzGkgCcQQeUdny1Y622-125" vertex="1">
          <mxGeometry y="60" width="263.75" height="30" as="geometry" />
        </mxCell>
        <mxCell id="FYzGkgCcQQeUdny1Y622-142" style="shape=partialRectangle;connectable=0;fillColor=none;top=0;left=0;bottom=0;right=0;fontStyle=1;overflow=hidden;" parent="FYzGkgCcQQeUdny1Y622-141" vertex="1">
          <mxGeometry width="60" height="30" as="geometry" />
        </mxCell>
        <mxCell id="FYzGkgCcQQeUdny1Y622-143" value="Legajo internacional del actor" style="shape=partialRectangle;connectable=0;fillColor=none;top=0;left=0;bottom=0;right=0;align=left;spacingLeft=6;fontStyle=5;overflow=hidden;" parent="FYzGkgCcQQeUdny1Y622-141" vertex="1">
          <mxGeometry x="60" width="203.75" height="30" as="geometry" />
        </mxCell>
        <mxCell id="FYzGkgCcQQeUdny1Y622-129" value="" style="shape=partialRectangle;collapsible=0;dropTarget=0;pointerEvents=0;fillColor=none;top=0;left=0;bottom=1;right=0;points=[[0,0.5],[1,0.5]];portConstraint=eastwest;" parent="FYzGkgCcQQeUdny1Y622-125" vertex="1">
          <mxGeometry y="90" width="263.75" height="30" as="geometry" />
        </mxCell>
        <mxCell id="FYzGkgCcQQeUdny1Y622-130" value="" style="shape=partialRectangle;connectable=0;fillColor=none;top=0;left=0;bottom=0;right=0;fontStyle=1;overflow=hidden;" parent="FYzGkgCcQQeUdny1Y622-129" vertex="1">
          <mxGeometry width="60" height="30" as="geometry" />
        </mxCell>
        <mxCell id="FYzGkgCcQQeUdny1Y622-131" value="Cod. País de filmación" style="shape=partialRectangle;connectable=0;fillColor=none;top=0;left=0;bottom=0;right=0;align=left;spacingLeft=6;fontStyle=5;overflow=hidden;" parent="FYzGkgCcQQeUdny1Y622-129" vertex="1">
          <mxGeometry x="60" width="203.75" height="30" as="geometry" />
        </mxCell>
        <mxCell id="FYzGkgCcQQeUdny1Y622-135" value="" style="shape=partialRectangle;collapsible=0;dropTarget=0;pointerEvents=0;fillColor=none;top=0;left=0;bottom=0;right=0;points=[[0,0.5],[1,0.5]];portConstraint=eastwest;" parent="FYzGkgCcQQeUdny1Y622-125" vertex="1">
          <mxGeometry y="120" width="263.75" height="30" as="geometry" />
        </mxCell>
        <mxCell id="FYzGkgCcQQeUdny1Y622-136" value="" style="shape=partialRectangle;connectable=0;fillColor=none;top=0;left=0;bottom=0;right=0;editable=1;overflow=hidden;" parent="FYzGkgCcQQeUdny1Y622-135" vertex="1">
          <mxGeometry width="60" height="30" as="geometry" />
        </mxCell>
        <mxCell id="FYzGkgCcQQeUdny1Y622-137" value="Fecha de realización" style="shape=partialRectangle;connectable=0;fillColor=none;top=0;left=0;bottom=0;right=0;align=left;spacingLeft=6;overflow=hidden;" parent="FYzGkgCcQQeUdny1Y622-135" vertex="1">
          <mxGeometry x="60" width="203.75" height="30" as="geometry" />
        </mxCell>
        <mxCell id="FYzGkgCcQQeUdny1Y622-144" style="shape=partialRectangle;collapsible=0;dropTarget=0;pointerEvents=0;fillColor=none;top=0;left=0;bottom=0;right=0;points=[[0,0.5],[1,0.5]];portConstraint=eastwest;" parent="FYzGkgCcQQeUdny1Y622-125" vertex="1">
          <mxGeometry y="150" width="263.75" height="30" as="geometry" />
        </mxCell>
        <mxCell id="FYzGkgCcQQeUdny1Y622-145" style="shape=partialRectangle;connectable=0;fillColor=none;top=0;left=0;bottom=0;right=0;editable=1;overflow=hidden;" parent="FYzGkgCcQQeUdny1Y622-144" vertex="1">
          <mxGeometry width="60" height="30" as="geometry" />
        </mxCell>
        <mxCell id="FYzGkgCcQQeUdny1Y622-146" value="Papel interpretado" style="shape=partialRectangle;connectable=0;fillColor=none;top=0;left=0;bottom=0;right=0;align=left;spacingLeft=6;overflow=hidden;" parent="FYzGkgCcQQeUdny1Y622-144" vertex="1">
          <mxGeometry x="60" width="203.75" height="30" as="geometry" />
        </mxCell>
      </root>
    </mxGraphModel>
  </diagram>
</mxfile>
